Coordinates
version=1
nRows=49
nColumns=12
inDegrees=yes

Units are S.I. units (second, meters, Newtons, ...)
Angles are in degrees

endheader
time	SC_y	SC_z	SC_x	AC_y	AC_z	AC_x	GH_y	GH_z	GH_yy	EL_x	PS_y
       0.0              -36.84          35.46          82.15          42.07          5.438         -16.76         -75.27          67.85          76.24          100.7          150.1
   0.04815              -36.84          35.46          82.14          42.08          5.437         -16.76         -75.26          67.85          76.22          100.7          150.1
    0.0963              -36.83          35.46          82.13          42.08          5.436         -16.75         -75.25          67.85          76.19          100.7          150.1
    0.1445              -36.83          35.46          82.12          42.08          5.435         -16.75         -75.24          67.85          76.16          100.7          150.1
    0.1926              -36.83          35.45          82.11          42.09          5.434         -16.74         -75.23          67.85          76.13          100.7          150.1
    0.2408              -36.82          35.45           82.1          42.09          5.432         -16.74         -75.22          67.85           76.1          100.7          150.1
    0.2889              -36.82          35.45          82.09          42.09          5.431         -16.73          -75.2          67.85          76.06          100.7          150.1
    0.3371              -36.82          35.45          82.08           42.1          5.429         -16.72         -75.19          67.85          76.02          100.6          150.1
    0.3852              -36.81          35.44          82.06           42.1          5.428         -16.72         -75.17          67.85          75.98          100.6          150.1
    0.4334              -36.81          35.44          82.05          42.11          5.426         -16.71         -75.16          67.85          75.94          100.6          150.1
    0.4815               -36.8          35.43          82.03          42.11          5.424          -16.7         -75.14          67.85          75.89          100.6          150.1
    0.5297               -36.8          35.43          82.02          42.12          5.422         -16.69         -75.12          67.85          75.84          100.6          150.1
    0.5778              -36.79          35.42           82.0          42.13           5.42         -16.68          -75.1          67.85          75.79          100.6          150.1
     0.626              -36.78          35.42          81.98          42.13          5.417         -16.67         -75.08          67.85          75.73          100.5          150.1
    0.6741              -36.78          35.41          81.96          42.14          5.415         -16.66         -75.05          67.85          75.66          100.5          150.1
    0.7223              -36.77          35.41          81.93          42.15          5.412         -16.65         -75.03          67.85           75.6          100.5          150.1
    0.7704              -36.76           35.4          81.91          42.16          5.409         -16.64          -75.0          67.85          75.52          100.5          150.1
    0.8186              -36.75          35.39          81.88          42.17          5.406         -16.62         -74.97          67.85          75.44          100.4          150.1
    0.8667              -36.74          35.38          81.85          42.18          5.402         -16.61         -74.93          67.84          75.35          100.4          150.1
    0.9149              -36.73          35.38          81.82          42.19          5.398         -16.59          -74.9          67.84          75.25          100.4          150.1
     0.963              -36.72          35.37          81.78           42.2          5.394         -16.57         -74.86          67.84          75.15          100.3          150.1
     1.011              -36.71          35.36          81.74          42.21          5.389         -16.55         -74.81          67.84          75.03          100.3          150.1
     1.059               -36.7          35.34           81.7          42.23          5.383         -16.53         -74.76          67.84           74.9          100.2          150.1
     1.107              -36.68          35.33          81.65          42.25          5.378          -16.5         -74.71          67.84          74.75          100.2          150.1
     1.156              -36.66          35.32           81.6          42.26          5.371         -16.48         -74.65          67.84          74.59          100.1          150.1
     1.204              -36.64           35.3          81.54          42.28          5.364         -16.44         -74.58          67.84          74.42          100.1          150.1
     1.252              -36.62          35.28          81.47          42.31          5.356         -16.41          -74.5          67.84          74.22          100.0          150.1
       1.3               -36.6          35.26           81.4          42.33          5.346         -16.37         -74.42          67.84          73.99          99.93          150.1
     1.348              -36.57          35.24          81.31          42.36          5.336         -16.33         -74.32          67.84          73.74          99.84          150.1
     1.396              -36.54          35.21          81.22           42.4          5.324         -16.28         -74.21          67.84          73.45          99.74          150.1
     1.445               -36.5          35.18           81.1          42.44          5.311         -16.22         -74.08          67.84          73.12          99.63          150.1
     1.493              -36.46          35.15          80.98          42.48          5.295         -16.15         -73.94          67.83          72.74           99.5          150.1
     1.541              -36.42          35.11          80.83          42.53          5.278         -16.08         -73.77          67.83           72.3          99.34          150.1
     1.589              -36.36          35.06          80.66          42.59          5.257         -15.99         -73.58          67.83           71.8          99.17          150.1
     1.637               -36.3          35.01          80.46          42.66          5.233         -15.89         -73.36          67.83           71.2          98.96          150.1
     1.685              -36.22          34.95          80.23          42.74          5.204         -15.77         -73.09          67.83           70.5          98.72          150.1
     1.733              -36.13          34.87          79.95          42.84           5.17         -15.62         -72.77          67.82          69.67          98.43          150.1
     1.782              -36.03          34.78          79.62          42.95           5.13         -15.45         -72.39          67.82          68.67          98.08          150.1
      1.83               -35.9          34.67          79.22          43.09           5.08         -15.24         -71.94          67.81          67.47          97.66          150.1
     1.878              -35.74          34.54          78.72          43.26           5.02         -14.98         -71.38          67.81          65.99          97.15          150.1
     1.926              -35.54          34.38          78.11          43.47          4.946         -14.67         -70.68           67.8          64.17          96.51          150.1
     1.974               -35.3          34.17          77.36          43.74          4.854         -14.27         -69.82          67.79          61.91          95.72          150.2
     2.022              -34.99          33.91           76.4          44.07          4.737         -13.78         -68.74          67.78          59.05          94.73          150.2
     2.071               -34.6          33.59          75.19          44.49          4.589         -13.15         -67.36          67.77          55.42          93.47          150.2
     2.119               -34.1          33.17          73.63          45.03          4.399         -12.34         -65.59          67.75          50.77          91.85          150.2
     2.167              -33.46          32.63          71.64          45.73          4.156         -11.31         -63.32          67.73           44.8          89.77          150.2
     2.215              -32.64          31.94          69.09          46.61          3.845         -9.986         -60.42           67.7          37.18          87.12          150.2
     2.263              -31.61          31.08          65.88          47.72          3.454         -8.324         -56.78          67.66           27.6          83.78          150.2
     2.311              -30.36          30.03          61.98          49.08          2.978         -6.299         -52.34          67.61          15.93          79.72          150.2
